<svg xmlns="http://www.w3.org/2000/svg" style="display:none">

  <!-- Map (Material Design Outlined) viewBox 0 0 24 24 -->
  <symbol id="map" viewBox="0 0 24 24">
    <path d="m20.5 3-.16.03L15 5.1 9 3 3.36 4.9c-.21.07-.36.25-.36.48V20.5c0 .28.22.5.5.5l.16-.03L9 18.9l6 2.1 5.64-1.9c.21-.07.36-.25.36-.48V3.5c0-.28-.22-.5-.5-.5zM10 5.47l4 1.4v11.66l-4-1.4V5.47zm-5 .99 3-1.01v11.7l-3 1.16V6.46zm14 11.08-3 1.01V6.86l3-1.16v11.84z" fill="currentColor"/>
  </symbol>

  <!-- Star filled (Font Awesome) viewBox 0 0 576 512 -->
  <symbol id="star-filled" viewBox="0 0 576 512">
    <path d="M259.3 17.8L194 150.2 47.9 171.5c-26.2 3.8-36.7 36.1-17.7 54.6l105.7 103-25 145.5c-4.5 26.3 23.2 46 46.4 33.7L288 439.6l130.7 68.7c23.2 12.2 50.9-7.4 46.4-33.7l-25-145.5 105.7-103c19-18.5 8.5-50.8-17.7-54.6L382 150.2 316.7 17.8c-11.7-23.6-45.6-23.9-57.4 0z" fill="currentColor"/>
  </symbol>

  <!-- Star empty (Font Awesome Regular) viewBox 0 0 576 512 -->
  <symbol id="star-empty" viewBox="0 0 576 512">
    <path d="M528.1 171.5L382 150.2 316.7 17.8c-11.7-23.6-45.6-23.9-57.4 0L194 150.2 47.9 171.5c-26.2 3.8-36.7 36.1-17.7 54.6l105.7 103-25 145.5c-4.5 26.3 23.2 46 46.4 33.7L288 439.6l130.7 68.7c23.2 12.2 50.9-7.4 46.4-33.7l-25-145.5 105.7-103c19-18.5 8.5-50.8-17.7-54.6zM388.6 312.3l23.7 138.4L288 385.4l-124.3 65.3 23.7-138.4-100.6-98 139-20.2 62.2-126 62.2 126 139 20.2-100.6 98z" fill="currentColor"/>
  </symbol>

  <!-- Close (Ionicons) viewBox 0 0 512 512 -->
  <symbol id="close" viewBox="0 0 512 512">
    <path d="m289.94 256 95-95A24 24 0 0 0 351 127l-95 95-95-95a24 24 0 0 0-34 34l95 95-95 95a24 24 0 1 0 34 34l95-95 95 95a24 24 0 0 0 34-34z" fill="currentColor"/>
  </symbol>

  <!-- Gas Pump / Petrol (Phosphor) viewBox 0 0 256 256 -->
  <symbol id="gas-pump" viewBox="0 0 256 256">
    <path d="M241,69.66,221.66,50.34a8,8,0,0,0-11.32,11.32L229.66,81A8,8,0,0,1,232,86.63V168a8,8,0,0,1-16,0V128a24,24,0,0,0-24-24H176V56a24,24,0,0,0-24-24H72A24,24,0,0,0,48,56V208H32a8,8,0,0,0,0,16H192a8,8,0,0,0,0-16H176V120h16a8,8,0,0,1,8,8v40a24,24,0,0,0,48,0V86.63A23.85,23.85,0,0,0,241,69.66ZM64,208V56a8,8,0,0,1,8-8h80a8,8,0,0,1,8,8V208Zm80-96a8,8,0,0,1-8,8H88a8,8,0,0,1,0-16h48A8,8,0,0,1,144,112Z" fill="currentColor"/>
  </symbol>

  <!-- Van / Alcove (Phosphor) viewBox 0 0 256 256 -->
  <symbol id="van" viewBox="0 0 256 256">
    <path d="M254.07,106.79,208.53,53.73A16,16,0,0,0,196.26,48H32A16,16,0,0,0,16,64V176a16,16,0,0,0,16,16H49a32,32,0,0,0,62,0h50a32,32,0,0,0,62,0h17a16,16,0,0,0,16-16V112A8,8,0,0,0,254.07,106.79ZM230.59,104H176V64h20.26ZM104,104V64h56v40ZM88,64v40H32V64ZM80,200a16,16,0,1,1,16-16A16,16,0,0,1,80,200Zm112,0a16,16,0,1,1,16-16A16,16,0,0,1,192,200Zm31-24a32,32,0,0,0-62,0H111a32,32,0,0,0-62,0H32V120H240v56Z" fill="currentColor"/>
  </symbol>

  <!-- Automatic Gearbox (Tabler — stroke-based) viewBox 0 0 24 24 -->
  <symbol id="automatic" viewBox="0 0 24 24">
    <path fill="none" stroke="currentColor" stroke-width="2" stroke-linecap="round" stroke-linejoin="round" d="M17 17v4h1a2 2 0 1 0 0-4h-1z"/>
    <path fill="none" stroke="currentColor" stroke-width="2" stroke-linecap="round" stroke-linejoin="round" d="M17 11h1.5a1.5 1.5 0 0 0 0-3h-1.5v5"/>
    <path fill="none" stroke="currentColor" stroke-width="2" stroke-linecap="round" stroke-linejoin="round" d="M5 5m-2 0a2 2 0 1 0 4 0a2 2 0 1 0-4 0"/>
    <path fill="none" stroke="currentColor" stroke-width="2" stroke-linecap="round" stroke-linejoin="round" d="M5 7v3a1 1 0 0 0 1 1h3v7a1 1 0 0 0 1 1h3"/>
    <path fill="none" stroke="currentColor" stroke-width="2" stroke-linecap="round" stroke-linejoin="round" d="M9 11h4"/>
  </symbol>

  <!-- Manual Gearbox (Tabler — stroke-based) viewBox 0 0 24 24 -->
  <symbol id="manual" viewBox="0 0 24 24">
    <path fill="none" stroke="currentColor" stroke-width="2" stroke-linecap="round" stroke-linejoin="round" d="M5 6m-2 0a2 2 0 1 0 4 0a2 2 0 1 0-4 0"/>
    <path fill="none" stroke="currentColor" stroke-width="2" stroke-linecap="round" stroke-linejoin="round" d="M12 6m-2 0a2 2 0 1 0 4 0a2 2 0 1 0-4 0"/>
    <path fill="none" stroke="currentColor" stroke-width="2" stroke-linecap="round" stroke-linejoin="round" d="M19 6m-2 0a2 2 0 1 0 4 0a2 2 0 1 0-4 0"/>
    <path fill="none" stroke="currentColor" stroke-width="2" stroke-linecap="round" stroke-linejoin="round" d="M5 18m-2 0a2 2 0 1 0 4 0a2 2 0 1 0-4 0"/>
    <path fill="none" stroke="currentColor" stroke-width="2" stroke-linecap="round" stroke-linejoin="round" d="M12 18m-2 0a2 2 0 1 0 4 0a2 2 0 1 0-4 0"/>
    <path fill="none" stroke="currentColor" stroke-width="2" stroke-linecap="round" stroke-linejoin="round" d="M5 8v8"/>
    <path fill="none" stroke="currentColor" stroke-width="2" stroke-linecap="round" stroke-linejoin="round" d="M12 8v8"/>
    <path fill="none" stroke="currentColor" stroke-width="2" stroke-linecap="round" stroke-linejoin="round" d="M19 8v2a2 2 0 0 1-2 2h-12"/>
  </symbol>

  <!-- AC / Wind (Phosphor) viewBox 0 0 256 256 -->
  <symbol id="ac" viewBox="0 0 256 256">
    <path d="M184,184a32,32,0,0,1-32,32c-13.7,0-26.95-8.93-31.5-21.22a8,8,0,0,1,15-5.56C137.74,195.27,145,200,152,200a16,16,0,0,0,0-32H40a8,8,0,0,1,0-16H152A32,32,0,0,1,184,184Zm-64-80a32,32,0,0,0,0-64c-13.7,0-26.95,8.93-31.5,21.22a8,8,0,0,0,15,5.56C105.74,60.73,113,56,120,56a16,16,0,0,1,0,32H24a8,8,0,0,0,0,16Zm88-32c-13.7,0-26.95,8.93-31.5,21.22a8,8,0,0,0,15,5.56C193.74,92.73,201,88,208,88a16,16,0,0,1,0,32H32a8,8,0,0,0,0,16H208a32,32,0,0,0,0-64Z" fill="currentColor"/>
  </symbol>

  <!-- Shower / Bathroom (Phosphor) viewBox 0 0 256 256 -->
  <symbol id="shower" viewBox="0 0 256 256">
    <path d="M64,236a12,12,0,1,1-12-12A12,12,0,0,1,64,236Zm20-44a12,12,0,1,0,12,12A12,12,0,0,0,84,192Zm-64,0a12,12,0,1,0,12,12A12,12,0,0,0,20,192Zm32-32a12,12,0,1,0,12,12A12,12,0,0,0,52,160ZM256,40a8,8,0,0,1-8,8H219.31L191.46,75.86,169.8,202.65a16,16,0,0,1-27.09,8.66l-98-98a16,16,0,0,1,8.69-27.1L180.14,64.54l30.2-30.2A8,8,0,0,1,216,32h32A8,8,0,0,1,256,40ZM174.21,81.79,56,102l98,98Z" fill="currentColor"/>
  </symbol>

  <!-- Kitchen / Knife (Phosphor) viewBox 0 0 256 256 -->
  <symbol id="kitchen" viewBox="0 0 256 256">
    <path d="M231.87,32.13a27.84,27.84,0,0,0-39.32,0L18.34,206.4a8,8,0,0,0,3.86,13.45A160.67,160.67,0,0,0,58.4,224c32.95,0,65.92-10.2,96.95-30.23,31.76-20.5,50.19-43.82,51-44.81a8,8,0,0,0-.64-10.59L185.32,118l46.55-46.56A27.85,27.85,0,0,0,231.87,32.13ZM189.1,144.44a220.41,220.41,0,0,1-42.86,36.16c-34.43,22.1-69.94,30.92-105.77,26.3L146,101.33Zm31.46-84.3L174,106.7,157.32,90l46.55-46.56a11.8,11.8,0,0,1,16.69,16.69Z" fill="currentColor"/>
  </symbol>

  <!-- TV / Television (Phosphor) viewBox 0 0 256 256 -->
  <symbol id="tv" viewBox="0 0 256 256">
    <path d="M216,64H147.31l34.35-34.34a8,8,0,1,0-11.32-11.32L128,60.69,85.66,18.34A8,8,0,0,0,74.34,29.66L108.69,64H40A16,16,0,0,0,24,80V200a16,16,0,0,0,16,16H216a16,16,0,0,0,16-16V80A16,16,0,0,0,216,64ZM40,80H144V200H40ZM216,200H160V80h56V200Zm-16-84a12,12,0,1,1-12-12A12,12,0,0,1,200,116Zm0,48a12,12,0,1,1-12-12A12,12,0,0,1,200,164Z" fill="currentColor"/>
  </symbol>

  <!-- Radio (Material Design) viewBox 0 0 24 24 -->
  <symbol id="radio" viewBox="0 0 24 24">
    <path d="M3.24 6.15C2.51 6.43 2 7.17 2 8v12a2 2 0 0 0 2 2h16a2 2 0 0 0 2-2V8c0-1.11-.89-2-2-2H8.3l8.26-3.34L15.88 1 3.24 6.15zM7 20c-1.66 0-3-1.34-3-3s1.34-3 3-3 3 1.34 3 3-1.34 3-3 3zm13-8h-2v-2h-2v2H4V8h16v4z" fill="currentColor"/>
  </symbol>

  <!-- Refrigerator (Material Design) viewBox 0 0 24 24 -->
  <symbol id="refrigerator" viewBox="0 0 24 24">
    <path d="M8 5h2v3H8zm0 7h2v5H8zm10-9.99L6 2a2 2 0 0 0-2 2v16c0 1.1.9 2 2 2h12c1.1 0 2-.9 2-2V4c0-1.11-.9-1.99-2-1.99zM18 20H6v-9.02h12V20zm0-11H6V4h12v5z" fill="currentColor"/>
  </symbol>

  <!-- Microwave (Tabler — stroke-based) viewBox 0 0 24 24 -->
  <symbol id="microwave" viewBox="0 0 24 24">
    <path fill="none" stroke="currentColor" stroke-width="2" stroke-linecap="round" stroke-linejoin="round" d="M3 7a1 1 0 0 1 1-1h16a1 1 0 0 1 1 1v10a1 1 0 0 1-1 1H4a1 1 0 0 1-1-1z"/>
    <path fill="none" stroke="currentColor" stroke-width="2" stroke-linecap="round" stroke-linejoin="round" d="M15 6v12"/>
    <path fill="none" stroke="currentColor" stroke-width="2" stroke-linecap="round" stroke-linejoin="round" d="M18 12h.01"/>
    <path fill="none" stroke="currentColor" stroke-width="2" stroke-linecap="round" stroke-linejoin="round" d="M18 15h.01"/>
    <path fill="none" stroke="currentColor" stroke-width="2" stroke-linecap="round" stroke-linejoin="round" d="M18 9h.01"/>
    <path fill="none" stroke="currentColor" stroke-width="2" stroke-linecap="round" stroke-linejoin="round" d="M6.5 10.5c1-.667 1.5-.667 2.5 0 .833.347 1.667.926 2.5 0"/>
    <path fill="none" stroke="currentColor" stroke-width="2" stroke-linecap="round" stroke-linejoin="round" d="M6.5 13.5c1-.667 1.5-.667 2.5 0 .833.347 1.667.926 2.5 0"/>
  </symbol>

  <!-- Flame / Gas amenity (Phosphor) viewBox 0 0 256 256 -->
  <symbol id="flame" viewBox="0 0 256 256">
    <path d="M173.79,51.48a221.25,221.25,0,0,0-41.67-34.34,8,8,0,0,0-8.24,0A221.25,221.25,0,0,0,82.21,51.48C54.59,80.48,40,112.47,40,144a88,88,0,0,0,176,0C216,112.47,201.41,80.48,173.79,51.48ZM96,184c0-27.67,22.53-47.28,32-54.3,9.48,7,32,26.63,32,54.3a32,32,0,0,1-64,0Zm77.27,15.93A47.8,47.8,0,0,0,176,184c0-44-42.09-69.79-43.88-70.86a8,8,0,0,0-8.24,0C122.09,114.21,80,140,80,184a47.8,47.8,0,0,0,2.73,15.93A71.88,71.88,0,0,1,56,144c0-34.41,20.4-63.15,37.52-81.19A216.21,216.21,0,0,1,128,33.54a215.77,215.77,0,0,1,34.48,29.27C193.49,95.5,200,125,200,144A71.88,71.88,0,0,1,173.27,199.93Z" fill="currentColor"/>
  </symbol>

  <!-- Water drop (Material Design) viewBox 0 0 24 24 -->
  <symbol id="water" viewBox="0 0 24 24">
    <path d="M12 2c-5.33 4.55-8 8.48-8 11.8 0 4.98 3.8 8.2 8 8.2s8-3.22 8-8.2c0-3.32-2.67-7.25-8-11.8zm0 18c-3.35 0-6-2.57-6-6.2 0-2.34 1.95-5.44 6-9.14 4.05 3.7 6 6.79 6 9.14 0 3.63-2.65 6.2-6 6.2zm-4.17-6c.37 0 .67.26.74.62.41 2.22 2.28 2.98 3.64 2.87.43-.02.79.32.79.75 0 .4-.32.73-.72.75-2.13.13-4.62-1.09-5.19-4.12a.75.75 0 0 1 .74-.87z" fill="currentColor"/>
  </symbol>

</svg>
